<svg xmlns="http://www.w3.org/2000/svg" width="512" height="512" id="owl"><path d="M409 209.302v233.693c-48.798-15.408-84.058-43.965-104.94-85.099-11.983-23.606-15.982-45.618-17.317-57.424 52.083-6.713 97.636-41.419 122.257-91.17zM241.37 457.83h149.418c-59.211-22.331-89.6-61.018-104.999-91.747-13.38-26.699-17.681-51.206-19.063-64.417h-22.984c-59.645 0-113.246-36.808-140.742-92.373v72.646c0 .001-3.927 155.387 138.37 175.891zm-44.71-347.81c29.94 1.4 49.12 19.42 59.34 32.83 10.22-13.41 29.4-31.43 59.34-32.83.16-.01.311-.02.47-.02h61.46c-26.08-34.04-65.92-55.83-110.48-55.83H245.2c-44.56 0-84.4 21.79-110.47 55.83h61.46c.16 0 .31.01.47.02zm-73.7-.02c-.94-.26-3.11-1-5.19-2.61-3.99-3.09-5.75-7.93-5.39-14.79.29-5.51-3.95-10.22-9.46-10.51-5.52-.28-10.22 3.94-10.51 9.46-1.41 26.65 17.65 36.73 27.93 38.33.47.07.93.11 1.41.12 3.82-7.04 8.16-13.73 12.98-20h-11.77zm296.63-18.45c-.29-5.52-5.01-9.74-10.51-9.46-5.51.29-9.75 5-9.46 10.51.7 13.19-7.18 16.57-10.53 17.4h-11.82c4.82 6.27 9.16 12.96 12.98 20 .48-.01.94-.05 1.41-.12 10.28-1.6 29.34-11.68 27.93-38.33zm-154.51 74.21c.157-.341 16.04-33.98 50.97-35.76h74.2a154.37 154.37 0 0 1 13.639 34.599c-15.938 68.284-71.884 117.066-135.63 117.067h-24.517c-63.74 0-119.691-48.783-135.632-117.064a154.309 154.309 0 0 1 13.64-34.603h74.2s32.088-.573 50.944 35.713c0 0 2.443 5.69 9.233 5.863 0 .002 6.366-.222 8.953-5.815zm-44.503 23.124c-4.067-9.553-12.813-15.746-23.077-15.746s-19.322 6.18-23.077 15.746c-2.018 5.141.513 10.944 5.654 12.963 5.139 2.018 10.944-.514 12.963-5.654.728-1.855 2.479-3.054 4.46-3.054s3.732 1.199 4.46 3.054c0 0 3.196 8.648 12.963 5.654 5.281-1.619 7.765-8.006 5.654-12.963zm59.319 18.53c-4.203-3.581-10.514-3.078-14.098 1.125L256 220.037l-9.798-11.499c-3.583-4.204-9.895-4.708-14.097-1.125-4.204 3.582-4.708 9.894-1.125 14.097l17.41 20.43a10.002 10.002 0 0 0 7.611 3.514s4.292.381 7.612-3.514l17.41-20.43c3.581-4.202 3.077-10.514-1.127-14.096zm34.605-34.275c-10.265 0-19.323 6.18-23.078 15.746-2.019 5.141.513 10.944 5.654 12.963 0 0 8.485 3.525 12.963-5.654.874-1.792 2.479-3.054 4.461-3.054s3.731 1.198 4.458 3.053c2.018 5.142 7.822 7.674 12.963 5.656s7.673-7.821 5.656-12.962c-3.754-9.567-12.812-15.748-23.077-15.748z"></path></svg>